<?xml version="1.0" encoding="UTF-8"?>
<svg id="Layer_1" data-name="Layer 1" xmlns="http://www.w3.org/2000/svg" viewBox="0 0 1080 1080">
  <defs>
    <style>
      .cls-1 {
        fill: #0d8800;
      }

      .cls-2 {
        fill: #002087;
      }

      .cls-3 {
        fill: none;
        stroke: #002087;
        stroke-miterlimit: 10;
        stroke-width: .33px;
      }

      .cls-4 {
        fill: #ff9334;
      }
    </style>
  </defs>
  <rect class="cls-4" x="402.83" y="504.44" width="66.2" height="143.34" rx="32.51" ry="32.51"/>
  <rect class="cls-3" x="504.24" y="442.79" width="66.2" height="205" rx="32.51" ry="32.51"/>
  <path class="cls-2" d="M747.55,396.94l-35.86,26.36c22.6,33.26,35.82,73.43,35.82,116.7,0,114.74-92.9,207.75-207.5,207.75s-207.5-93.01-207.5-207.75,92.9-207.75,207.5-207.75c27.64,0,54,5.46,78.12,15.28l38.15-31.35c-34.79-18.16-74.32-28.48-116.27-28.48-139.18,0-252,112.96-252,252.3s112.82,252.3,252,252.3,252-112.96,252-252.3c0-53.13-16.44-102.4-44.45-143.06Z"/>
  <path class="cls-1" d="M757.47,310.99c-12.04-12.61-32.23-12.77-45.91-1.95l-93.52,73.99c-6.29,4.98-10.15,11.86-11.69,19.19-.09.4-.18.79-.26,1.2-.25,1.45-.38,2.9-.44,4.38-.03.58-.17,1.12-.17,1.7v203.46c0,17.36,12.57,33.03,29.83,34.67,19.55,1.85,36.16-13.67,36.16-32.88v-175.6c0-8.66,3.96-16.85,10.75-22.22l71.89-56.88c15.14-11.98,17.02-34.77,3.37-49.06Z"/>
</svg>